<svg id="SvgjsSvg1001" width="288" height="288" xmlns="http://www.w3.org/2000/svg" version="1.1" xmlns:xlink="http://www.w3.org/1999/xlink" xmlns:svgjs="http://svgjs.com/svgjs"><defs id="SvgjsDefs1002"></defs><g id="SvgjsG1008"><svg xmlns="http://www.w3.org/2000/svg" viewBox="0 0 24 24" width="288" height="288"><path fill="none" d="M0 0h24v24H0V0z" class="selectable"></path><path d="M19 15v4H5v-4h14m1-2H4c-.55 0-1 .45-1 1v6c0 .55.45 1 1 1h16c.55 0 1-.45 1-1v-6c0-.55-.45-1-1-1zM7 18.5c-.82 0-1.5-.67-1.5-1.5s.68-1.5 1.5-1.5 1.5.67 1.5 1.5-.67 1.5-1.5 1.5zM19 5v4H5V5h14m1-2H4c-.55 0-1 .45-1 1v6c0 .55.45 1 1 1h16c.55 0 1-.45 1-1V4c0-.55-.45-1-1-1zM7 8.5c-.82 0-1.5-.67-1.5-1.5S6.18 5.5 7 5.5s1.5.68 1.5 1.5S7.83 8.5 7 8.5z" fill="#8ed5ff" class="svgShape color000000-1 selectable"></path></svg></g></svg>