<!DOCTYPE svg PUBLIC "-//W3C//DTD SVG 1.1//EN" "http://www.w3.org/Graphics/SVG/1.1/DTD/svg11.dtd">
<!-- Uploaded to: SVG Repo, www.svgrepo.com, Transformed by: SVG Repo Mixer Tools -->
<svg width="800px" height="800px" viewBox="0 0 24 24" fill="none" xmlns="http://www.w3.org/2000/svg">
<g id="SVGRepo_bgCarrier" stroke-width="0"/>
<g id="SVGRepo_tracerCarrier" stroke-linecap="round" stroke-linejoin="round"/>
<g id="SVGRepo_iconCarrier">
<path fill-rule="evenodd" clip-rule="evenodd" d="M3.4 4h17.2A2.4 2.4 0 0 1 23 6.4v11.2a2.4 2.4 0 0 1-2.4 2.4H3.4A2.4 2.4 0 0 1 1 17.6V6.4A2.4 2.4 0 0 1 3.4 4ZM4 9a1 1 0 0 1 1-1h5a1 1 0 1 1 0 2H5a1 1 0 0 1-1-1Zm1 2a1 1 0 1 0 0 2h5a1 1 0 1 0 0-2H5Zm0 3a1 1 0 1 0 0 2h5a1 1 0 1 0 0-2H5Zm10.707.707 4-4a1 1 0 0 0-1.414-1.414L15 12.586l-1.293-1.293a1 1 0 0 0-1.414 1.414l2 2a1 1 0 0 0 1.414 0Z" fill="#8ed5ff"/>
</g>
</svg>